<svg width="30" height="40" viewBox="0 0 12 11" fill="none" xmlns="http://www.w3.org/2000/svg">
<path d="M12 1.15789C12 0.518407 11.4816 0 10.8421 0H1.15789C0.518406 0 0 0.518407 0 1.15789V1.15789C0 1.79738 0.518407 2.31579 1.15789 2.31579H10.8421C11.4816 2.31579 12 1.79738 12 1.15789V1.15789ZM12 5.5C12 4.86051 11.4816 4.34211 10.8421 4.34211H1.15789C0.518406 4.34211 0 4.86051 0 5.5V5.5C0 6.13949 0.518407 6.65789 1.15789 6.65789H10.8421C11.4816 6.65789 12 6.13949 12 5.5V5.5ZM12 9.84211C12 9.20262 11.4816 8.68421 10.8421 8.68421H1.15789C0.518406 8.68421 0 9.20262 0 9.84211V9.84211C0 10.4816 0.518407 11 1.15789 11H10.8421C11.4816 11 12 10.4816 12 9.84211V9.84211Z" fill="url(#paint0_linear_66_14)"/>
<defs>
<linearGradient id="paint0_linear_66_14" x1="-6.70552e-08" y1="5.5" x2="12" y2="5.5" gradientUnits="userSpaceOnUse">
<stop stop-color="#04429E"/>
<stop offset="1" stop-color="#0450C0"/>
</linearGradient>
</defs>
</svg>
