<?xml version="1.0" standalone="no"?>
<!DOCTYPE svg PUBLIC "-//W3C//DTD SVG 20010904//EN"
 "http://www.w3.org/TR/2001/REC-SVG-20010904/DTD/svg10.dtd">
<svg version="1.0" xmlns="http://www.w3.org/2000/svg"
 width="60.000000pt" height="40.000000pt" viewBox="0 0 660.000000 408.000000"
 preserveAspectRatio="xMidYMid meet">
<metadata>
Created by potrace 1.16, written by Peter Selinger 2001-2019
</metadata>
<g transform="translate(0.000000,408.000000) scale(0.100000,-0.100000)"
fill="#000000" stroke="none">
<path d="M0 2040 l0 -2040 1250 0 1250 0 0 400 0 400 -750 0 -750 0 0 440 0
440 455 0 455 0 0 395 0 395 -455 0 -455 0 0 405 0 405 750 0 750 0 0 400 0
400 -1250 0 -1250 0 0 -2040z"/>
<path d="M2930 3676 l0 -405 833 -4 c898 -4 853 -1 1042 -58 82 -24 224 -94
306 -150 269 -182 449 -448 525 -774 28 -119 26 -397 -4 -516 -54 -219 -157
-415 -294 -564 -63 -68 -181 -167 -253 -213 -74 -47 -210 -110 -295 -136 -185
-55 -198 -56 -1062 -56 l-798 0 0 -400 0 -401 938 4 c918 3 939 4 1054 25 250
47 413 99 607 192 570 275 923 753 1048 1420 26 140 26 662 0 800 -90 473
-286 841 -594 1116 -297 264 -622 414 -1078 496 -116 21 -149 22 -1047 25
l-928 4 0 -405z"/>
<path d="M2630 2451 c-79 -25 -109 -43 -161 -96 -64 -64 -104 -138 -89 -165
18 -33 51 -21 75 25 44 87 147 161 245 176 69 11 147 -6 211 -46 65 -40 84
-43 98 -16 21 39 -55 98 -164 127 -68 19 -149 17 -215 -5z"/>
<path d="M2648 2329 c-10 -5 -18 -18 -18 -28 0 -33 22 -41 92 -34 56 5 73 2
113 -17 58 -28 102 -86 111 -148 4 -27 0 -110 -9 -196 -9 -82 -14 -153 -11
-157 3 -5 18 -9 34 -9 26 0 28 3 39 63 7 34 15 119 18 189 7 147 -5 193 -65
260 -57 63 -117 88 -209 88 -43 0 -86 -5 -95 -11z"/>
<path d="M3043 2273 c-18 -7 -16 -44 5 -84 13 -26 17 -59 17 -144 l0 -110 29
0 c26 0 31 5 39 35 5 19 7 76 5 125 -3 72 -9 99 -28 135 -24 43 -41 54 -67 43z"/>
<path d="M2504 2204 c-24 -40 -29 -63 -36 -163 -4 -64 -13 -140 -19 -169 -12
-58 -2 -82 32 -82 34 0 45 45 58 230 6 93 13 124 31 156 27 47 22 74 -14 74
-19 0 -32 -11 -52 -46z"/>
<path d="M2659 2197 c-55 -36 -66 -74 -79 -247 -6 -85 -13 -174 -16 -197 -5
-36 -3 -42 16 -48 49 -15 68 46 77 250 4 90 10 138 21 157 24 42 80 50 122 18
22 -17 25 -27 30 -112 4 -79 8 -93 23 -96 37 -7 47 16 47 105 0 137 -45 193
-153 193 -40 0 -63 -6 -88 -23z"/>
<path d="M2717 2093 c-3 -4 -7 -64 -8 -133 l-4 -125 30 0 c26 0 30 4 37 40 5
22 7 80 6 130 -3 89 -3 90 -30 93 -14 2 -28 0 -31 -5z"/>
</g>
</svg>
