<svg width="13" height="14" viewBox="0 0 13 14" fill="none" xmlns="http://www.w3.org/2000/svg">
<path d="M7.9131 6.78284C7.9131 7.38246 7.6749 7.95752 7.2509 8.38152C6.82691 8.80551 6.25185 9.04371 5.65223 9.04371C5.05261 9.04371 4.47755 8.80551 4.05355 8.38152C3.62956 7.95752 3.39136 7.38246 3.39136 6.78284C3.39136 6.18322 3.62956 5.60816 4.05355 5.18417C4.47755 4.76017 5.05261 4.52197 5.65223 4.52197C6.25185 4.52197 6.82691 4.76017 7.2509 5.18417C7.6749 5.60816 7.9131 6.18322 7.9131 6.78284V6.78284Z" fill="#0450C0"/>
<path d="M13 5.82174L8.18435 0.463478L7.13304 0H1.41304L0 1.41304V12.1296L1.41304 13.5426H7.13304L8.18435 13.0678L13 7.70956V5.82174V5.82174ZM7.13304 12.1296H1.41304V1.41304H7.13304L11.9487 6.76L7.13304 12.1296Z" fill="#0450C0"/>
</svg>
