<?xml version="1.0" standalone="no"?>
<!DOCTYPE svg PUBLIC "-//W3C//DTD SVG 20010904//EN"
 "http://www.w3.org/TR/2001/REC-SVG-20010904/DTD/svg10.dtd">
<svg version="1.0" xmlns="http://www.w3.org/2000/svg"
 width="74.000000pt" height="80.000000pt" viewBox="0 0 74.000000 80.000000"
 preserveAspectRatio="xMidYMid meet">

<g transform="translate(0.000000,80.000000) scale(0.100000,-0.100000)"
fill="#214fc6" stroke="none">
<path d="M300 716 c-138 -30 -236 -130 -266 -269 -32 -150 42 -301 183 -373
52 -26 68 -29 153 -29 84 0 101 3 149 28 69 35 123 89 158 158 24 48 28 65 28
149 0 85 -3 101 -29 153 -51 99 -136 162 -254 186 -61 13 -51 13 -122 -3z
m117 -157 c22 -25 34 -30 58 -26 48 7 65 -7 65 -57 0 -35 5 -48 30 -70 25 -22
29 -30 20 -46 -6 -11 -19 -24 -30 -30 -14 -8 -20 -23 -22 -63 l-3 -52 -52 -3
c-40 -2 -55 -8 -63 -22 -6 -11 -19 -24 -30 -30 -15 -8 -24 -4 -49 22 -25 27
-36 32 -70 29 -46 -3 -56 8 -53 59 2 29 -3 41 -28 63 -38 34 -38 51 1 79 27
20 30 27 26 61 -7 49 11 68 58 60 29 -5 38 -1 60 26 33 39 48 39 82 0z"/>
<path d="M347 517 c-21 -22 -35 -28 -60 -25 -31 3 -32 2 -29 -30 3 -25 -3 -39
-26 -61 l-29 -29 29 -26 c24 -20 29 -32 26 -58 -3 -32 -2 -33 40 -36 32 -2 46
-9 59 -28 l16 -25 27 26 c18 17 37 25 63 25 36 0 37 1 37 38 0 28 7 45 25 62
l24 23 -24 19 c-19 15 -25 29 -25 59 0 38 -1 39 -34 39 -23 0 -42 9 -62 28
l-29 28 -28 -29z m117 -94 c8 -8 -83 -103 -99 -103 -6 0 -24 14 -40 30 -27 28
-27 30 -8 30 11 0 26 -7 33 -15 10 -12 18 -9 54 25 43 42 48 44 60 33z"/>
</g>
</svg>
