<svg width="13" height="13" viewBox="0 0 13 13" fill="none" xmlns="http://www.w3.org/2000/svg">
<path d="M0.793 0L0 0.793L1.989 2.782C1.07683 3.9053 0.613342 5.32681 0.688088 6.7719C0.762834 8.21699 1.37051 9.5831 2.3937 10.6063C3.4169 11.6295 4.78301 12.2372 6.2281 12.3119C7.67319 12.3867 9.0947 11.9232 10.218 11.011L12.207 13L13 12.207L0.793 0ZM3.25 7.15V5.85H5.057L6.357 7.15H3.25ZM6.5 0.65C5.53317 0.651588 4.58181 0.892779 3.731 1.352L8.229 5.85H9.75V7.15H9.529L11.648 9.269C12.1267 8.37815 12.3663 7.37842 12.3433 6.36736C12.3204 5.35631 12.0358 4.36846 11.5172 3.50023C10.9986 2.632 10.2638 1.91303 9.38445 1.41349C8.50513 0.913945 7.51131 0.650893 6.5 0.65V0.65Z" fill="#0450C0"/>
</svg>
