<?xml version="1.0" standalone="no"?>
<!DOCTYPE svg PUBLIC "-//W3C//DTD SVG 20010904//EN"
 "http://www.w3.org/TR/2001/REC-SVG-20010904/DTD/svg10.dtd">
<svg version="1.0" xmlns="http://www.w3.org/2000/svg"
 width="103.000000pt" height="111.000000pt" viewBox="0 0 103.000000 111.000000"
 preserveAspectRatio="xMidYMid meet">

<g transform="translate(0.000000,111.000000) scale(0.100000,-0.100000)"
fill="#214fc6" stroke="none">
<path d="M425 975 c-99 -29 -140 -52 -211 -118 -93 -86 -142 -194 -151 -331
-11 -157 68 -314 207 -415 56 -41 96 -58 184 -78 285 -64 577 176 576 475 -1
218 -155 412 -376 471 -52 14 -177 12 -229 -4z m294 -301 c12 -15 21 -31 21
-37 0 -6 -33 -43 -72 -83 -61 -60 -80 -73 -117 -79 -50 -8 -60 0 -53 47 4 23
25 52 79 105 83 81 109 90 142 47z m-221 -36 c3 -15 -4 -18 -42 -18 -43 0 -45
-2 -51 -32 -3 -18 -5 -69 -3 -113 l3 -80 120 0 120 0 6 38 c8 47 15 55 36 35
21 -22 10 -104 -17 -118 -10 -5 -76 -10 -146 -10 -170 0 -164 -6 -164 166 0
153 1 156 85 151 38 -1 51 -6 53 -19z"/>
<path d="M660 641 c0 -6 5 -13 10 -16 6 -3 10 1 10 9 0 9 -4 16 -10 16 -5 0
-10 -4 -10 -9z"/>
<path d="M583 571 c-36 -31 -40 -41 -20 -41 14 0 67 50 67 63 0 13 -15 6 -47
-22z"/>
</g>
</svg>
