<svg width="32" height="23" viewBox="0 0 32 23" fill="none" xmlns="http://www.w3.org/2000/svg">
<rect width="32" height="23" rx="2" fill="url(#paint0_linear_23_273)"/>
<path d="M13.8571 7.5721V6.39283C13.8571 6.28864 13.9023 6.18873 13.9827 6.11506C14.063 6.04139 14.1721 6 14.2857 6H17.7143C17.828 6 17.937 6.04139 18.0173 6.11506C18.0977 6.18873 18.1429 6.28864 18.1429 6.39283V7.5721H21.5714C21.6851 7.5721 21.7941 7.61349 21.8745 7.68716C21.9548 7.76083 22 7.86075 22 7.96493C22 8.06912 21.9548 8.16903 21.8745 8.2427C21.7941 8.31637 21.6851 8.35776 21.5714 8.35776H10.4286C10.3149 8.35776 10.2059 8.31637 10.1255 8.2427C10.0452 8.16903 10 8.06912 10 7.96493C10 7.86075 10.0452 7.76083 10.1255 7.68716C10.2059 7.61349 10.3149 7.5721 10.4286 7.5721H13.8571ZM14.7143 7.5721H17.2857V6.78644H14.7143V7.5721ZM11.7143 17C11.6006 17 11.4916 16.9586 11.4112 16.8849C11.3309 16.8113 11.2857 16.7114 11.2857 16.6072V8.35776H20.7143V16.6072C20.7143 16.7114 20.6691 16.8113 20.5888 16.8849C20.5084 16.9586 20.3994 17 20.2857 17H11.7143ZM14.7143 14.643C14.8279 14.643 14.937 14.6016 15.0173 14.528C15.0977 14.4543 15.1429 14.3544 15.1429 14.2502V10.3219C15.1429 10.2177 15.0977 10.1178 15.0173 10.0441C14.937 9.97046 14.8279 9.92908 14.7143 9.92908C14.6006 9.92908 14.4916 9.97046 14.4112 10.0441C14.3309 10.1178 14.2857 10.2177 14.2857 10.3219V14.2502C14.2857 14.3544 14.3309 14.4543 14.4112 14.528C14.4916 14.6016 14.6006 14.643 14.7143 14.643ZM17.2857 14.643C17.3994 14.643 17.5084 14.6016 17.5888 14.528C17.6691 14.4543 17.7143 14.3544 17.7143 14.2502V10.3219C17.7143 10.2177 17.6691 10.1178 17.5888 10.0441C17.5084 9.97046 17.3994 9.92908 17.2857 9.92908C17.1721 9.92908 17.063 9.97046 16.9827 10.0441C16.9023 10.1178 16.8571 10.2177 16.8571 10.3219V14.2502C16.8571 14.3544 16.9023 14.4543 16.9827 14.528C17.063 14.6016 17.1721 14.643 17.2857 14.643Z" fill="white"/>
<defs>
<linearGradient id="paint0_linear_23_273" x1="-1.78814e-07" y1="11.5" x2="32" y2="11.5" gradientUnits="userSpaceOnUse">
<stop stop-color="#04429E"/>
<stop offset="1" stop-color="#0450C0"/>
</linearGradient>
</defs>
</svg>
