<?xml version="1.0" standalone="no"?>
<!DOCTYPE svg PUBLIC "-//W3C//DTD SVG 20010904//EN"
 "http://www.w3.org/TR/2001/REC-SVG-20010904/DTD/svg10.dtd">
<svg version="1.0" xmlns="http://www.w3.org/2000/svg"
 width="438.000000pt" height="431.000000pt" viewBox="0 0 438.000000 431.000000"
 preserveAspectRatio="xMidYMid meet">

<g transform="translate(0.000000,431.000000) scale(0.100000,-0.100000)"
fill="#0c2c94c7" stroke="none">
<path d="M1945 4304 c-131 -13 -399 -79 -467 -115 -10 -5 -25 -9 -33 -9 -8 0
-23 -4 -33 -9 -9 -5 -83 -41 -164 -81 -290 -141 -569 -371 -758 -625 -25 -33
-48 -61 -52 -63 -5 -2 -8 -8 -8 -14 0 -6 -11 -26 -25 -44 -14 -18 -25 -35 -25
-38 0 -3 -15 -30 -34 -59 -44 -69 -156 -304 -156 -327 0 -6 -4 -18 -9 -28 -11
-20 -54 -165 -69 -232 -35 -152 -62 -367 -62 -493 0 -252 67 -582 168 -827
140 -341 398 -675 687 -890 33 -25 62 -47 65 -50 4 -5 55 -38 102 -65 9 -5 43
-25 75 -44 76 -46 114 -65 163 -85 21 -8 58 -24 82 -35 84 -38 287 -98 408
-121 193 -37 459 -49 619 -29 200 25 488 93 517 122 4 4 16 7 26 7 10 0 26 4
36 9 9 5 83 41 163 80 88 42 196 105 270 157 68 48 126 90 129 93 3 3 39 35
80 71 91 79 91 79 166 165 77 89 167 204 182 232 7 12 18 27 25 35 7 7 18 24
24 38 7 14 26 48 43 75 33 54 74 139 130 270 17 38 71 210 81 255 54 246 72
412 65 595 -6 157 -17 255 -40 365 -27 133 -73 291 -89 306 -4 4 -7 16 -7 26
0 10 -4 26 -9 36 -5 9 -42 84 -81 165 -43 88 -108 199 -158 270 -47 67 -88
124 -91 127 -3 3 -35 39 -71 80 -78 90 -78 90 -165 166 -89 77 -204 167 -232
182 -12 7 -27 18 -35 25 -7 7 -24 18 -38 24 -14 7 -47 26 -75 43 -54 33 -130
69 -270 131 -42 18 -212 72 -250 80 -22 4 -83 18 -135 29 -82 19 -130 23 -360
25 -146 2 -283 1 -305 -1z m395 -1200 c136 -47 246 -178 260 -309 l5 -50 257
-3 256 -2 31 -29 c56 -52 38 -135 -36 -166 -19 -8 -52 -15 -73 -15 l-37 0 -7
-72 c-3 -40 -8 -91 -11 -113 -2 -22 -10 -103 -16 -180 -6 -77 -15 -183 -19
-235 -5 -52 -13 -156 -19 -230 -14 -176 -25 -233 -58 -298 -50 -96 -121 -157
-223 -192 -63 -22 -77 -23 -430 -21 -280 1 -377 4 -418 15 -169 46 -290 205
-292 385 0 29 -4 92 -10 140 -8 75 -17 172 -46 496 -3 39 -9 120 -13 182 -4
62 -10 115 -14 119 -4 4 -35 11 -70 15 -49 6 -66 13 -84 34 -42 48 -25 124 34
154 14 7 104 11 261 11 180 0 242 3 250 13 5 6 13 32 17 56 20 122 102 226
220 280 17 7 37 17 45 22 27 14 192 10 240 -7z"/>
<path d="M2169 2916 c-19 -6 -47 -19 -62 -29 -36 -23 -79 -93 -75 -120 3 -22
7 -22 181 -25 197 -3 201 -1 177 61 -18 45 -46 74 -94 96 -57 26 -85 30 -127
17z"/>
<path d="M1994 2238 c-57 -15 -58 -18 -57 -276 l1 -237 27 -22 c32 -28 74 -29
107 -3 45 35 50 63 46 278 -3 184 -5 203 -24 228 -24 33 -57 44 -100 32z"/>
<path d="M2350 2223 l-30 -28 -1 -230 0 -230 31 -27 c42 -38 83 -37 121 3 l29
31 0 215 c0 233 -5 258 -57 282 -38 17 -60 13 -93 -16z"/>
</g>
</svg>
