<svg width="12" height="13" viewBox="0 0 12 13" fill="none" xmlns="http://www.w3.org/2000/svg">
<path d="M10.4942 4.58237C10.5028 4.66616 10.5095 4.75063 10.5142 4.83571L11.9411 6.64197C12.0913 6.85872 11.9411 7.21998 11.6407 7.21998H10.5142V9.38749C10.5142 10.1822 9.83824 10.8325 9.01213 10.8325H8.26112V13H5.49924V10.9658C5.72659 10.8661 5.88548 10.6382 5.88548 10.3731C5.88548 10.0161 5.59727 9.72662 5.24175 9.72662C4.88624 9.72662 4.59803 10.0161 4.59803 10.3731C4.59803 10.6382 4.75691 10.8661 4.98426 10.9658V13H3.00405V9.60423C2.34981 9.31576 1.77473 8.90353 1.30754 8.39866L2.80153 7.12744C3.02983 7.22518 3.31249 7.18873 3.5189 7.01309C3.79691 6.77653 3.83134 6.37708 3.59581 6.12089C3.36027 5.86469 2.94397 5.84877 2.66596 6.08533C2.45954 6.26097 2.3874 6.52641 2.46035 6.75634L0.984551 8.01207C0.361188 7.18385 0 6.16159 0 5.05246C0 2.32277 2.18488 0.135513 4.98426 0.00145524V2.11757C4.75691 2.21733 4.59803 2.44517 4.59803 2.71029C4.59803 3.06734 4.88624 3.35679 5.24175 3.35679C5.59727 3.35679 5.88548 3.06734 5.88548 2.71029C5.88548 2.44517 5.72659 2.21733 5.49924 2.11757V0C7.94392 0.102431 9.90441 1.75032 10.4005 4.00068L8.76152 5.39526C8.53322 5.29752 8.25056 5.33397 8.04414 5.50961C7.76613 5.74617 7.7317 6.14562 7.96724 6.40181C8.20277 6.65801 8.61908 6.67393 8.89708 6.43737C9.1035 6.26173 9.17564 5.99629 9.10269 5.76636L10.4942 4.58237Z" fill="#0444A4"/>
</svg>
