<svg width="14" height="14" viewBox="0 0 14 14" fill="none" xmlns="http://www.w3.org/2000/svg">
<path d="M0.777778 7.77778H5.44444C5.87222 7.77778 6.22222 7.42778 6.22222 7V0.777778C6.22222 0.35 5.87222 0 5.44444 0H0.777778C0.35 0 0 0.35 0 0.777778V7C0 7.42778 0.35 7.77778 0.777778 7.77778ZM0.777778 14H5.44444C5.87222 14 6.22222 13.65 6.22222 13.2222V10.1111C6.22222 9.68333 5.87222 9.33333 5.44444 9.33333H0.777778C0.35 9.33333 0 9.68333 0 10.1111V13.2222C0 13.65 0.35 14 0.777778 14ZM8.55556 14H13.2222C13.65 14 14 13.65 14 13.2222V7C14 6.57222 13.65 6.22222 13.2222 6.22222H8.55556C8.12778 6.22222 7.77778 6.57222 7.77778 7V13.2222C7.77778 13.65 8.12778 14 8.55556 14ZM7.77778 0.777778V3.88889C7.77778 4.31667 8.12778 4.66667 8.55556 4.66667H13.2222C13.65 4.66667 14 4.31667 14 3.88889V0.777778C14 0.35 13.65 0 13.2222 0H8.55556C8.12778 0 7.77778 0.35 7.77778 0.777778Z" fill="#A3A3A3"/>
</svg>
