<svg width="13" height="13" viewBox="0 0 13 13" fill="none" xmlns="http://www.w3.org/2000/svg">
<path d="M6.5 0C5.21442 0 3.95771 0.381218 2.8888 1.09545C1.81988 1.80968 0.986755 2.82484 0.494786 4.01256C0.00281634 5.20028 -0.125905 6.50721 0.124899 7.76809C0.375702 9.02896 0.994767 10.1872 1.90381 11.0962C2.81285 12.0052 3.97104 12.6243 5.23192 12.8751C6.49279 13.1259 7.79972 12.9972 8.98744 12.5052C10.1752 12.0132 11.1903 11.1801 11.9046 10.1112C12.6188 9.04228 13 7.78558 13 6.5C12.998 4.7767 12.3126 3.12454 11.094 1.90598C9.87546 0.687417 8.2233 0.00196612 6.5 0V0ZM6.5 12.0714C5.02237 12.0714 3.60525 11.4844 2.56041 10.4396C1.51556 9.39475 0.928574 7.97763 0.928574 6.5C0.928574 5.02236 1.51556 3.60525 2.56041 2.5604C3.60525 1.51556 5.02237 0.928571 6.5 0.928571V6.5L10.4376 10.4376C9.92122 10.9558 9.30753 11.367 8.6318 11.6473C7.95606 11.9277 7.2316 12.0718 6.5 12.0714Z" fill="#0450C0"/>
</svg>
