<svg width="12" height="13" viewBox="0 0 12 13" fill="none" xmlns="http://www.w3.org/2000/svg">
<path d="M8.74286 6.45912L6.85714 8.91195L6 7.7673L5.14286 8.91195L3.25714 6.45912C2.04359e-07 7.27673 0 8.91195 0 12.1006C0 12.1006 2.57143 13 5.48571 13H6.51429C9.42857 12.9182 12 12.1006 12 12.1006C12 8.91195 12 7.27673 8.74286 6.45912V6.45912ZM6 7.03145L4.62857 6.45912L6 7.7673L7.37143 6.45912L6 7.03145ZM6 0C4.37143 0 3.42857 1.4717 3.68571 3.10692C3.94286 4.74214 4.8 5.88679 6 5.88679C7.2 5.88679 8.05714 4.74214 8.31429 3.10692C8.57143 1.38994 7.62857 0 6 0V0Z" fill="#0444A4"/>
</svg>
