<svg width="42" height="42" viewBox="0 0 42 42" fill="none" xmlns="http://www.w3.org/2000/svg">
<circle cx="21" cy="21" r="21" fill="url(#paint0_linear_23_250)"/>
<path opacity="0.3" d="M19 18C20.1046 18 21 17.1046 21 16C21 14.8954 20.1046 14 19 14C17.8954 14 17 14.8954 17 16C17 17.1046 17.8954 18 19 18Z" fill="white"/>
<path opacity="0.3" d="M19 24C19 23.66 19.03 23.33 19.08 23.01C19.05 23 19.03 23 19 23C17.03 23 15.1 23.53 13.41 24.54C13.16 24.68 13 25 13 25.35V26H19.29C19.1 25.37 19 24.7 19 24Z" fill="white"/>
<path d="M13 26V25.35C13 25.01 13.16 24.69 13.41 24.54C15.1 23.53 17.03 23 19 23C19.03 23 19.05 23 19.08 23.01C19.18 22.31 19.38 21.64 19.67 21.03C19.45 21.01 19.23 21 19 21C16.58 21 14.32 21.67 12.39 22.82C11.51 23.34 11 24.32 11 25.35V28H20.26C19.84 27.4 19.51 26.72 19.29 26H13ZM19 20C21.21 20 23 18.21 23 16C23 13.79 21.21 12 19 12C16.79 12 15 13.79 15 16C15 18.21 16.79 20 19 20ZM19 14C20.1 14 21 14.9 21 16C21 17.1 20.1 18 19 18C17.9 18 17 17.1 17 16C17 14.9 17.9 14 19 14ZM29.83 20.63L28.38 21.12C28.06 20.85 27.7 20.64 27.3 20.49L27 19H25L24.7 20.49C24.3 20.64 23.94 20.85 23.62 21.12L22.17 20.63L21.17 22.36L22.31 23.36C22.28 23.57 22.25 23.77 22.25 23.99C22.25 24.21 22.28 24.41 22.31 24.62L21.17 25.62L22.17 27.35L23.62 26.86C23.94 27.13 24.3 27.34 24.7 27.49L25 29H27L27.3 27.51C27.7 27.36 28.06 27.15 28.38 26.88L29.83 27.37L30.83 25.64L29.69 24.64C29.72 24.43 29.75 24.23 29.75 24.01C29.75 23.79 29.72 23.59 29.69 23.38L30.83 22.38L29.83 20.63ZM26 26C24.9 26 24 25.1 24 24C24 22.9 24.9 22 26 22C27.1 22 28 22.9 28 24C28 25.1 27.1 26 26 26Z" fill="white"/>
<defs>
<linearGradient id="paint0_linear_23_250" x1="-2.34693e-07" y1="21" x2="42" y2="21" gradientUnits="userSpaceOnUse">
<stop stop-color="#04429E"/>
<stop offset="1" stop-color="#0450C0"/>
</linearGradient>
</defs>
</svg>
