<svg width="389" height="236" viewBox="0 0 389 236" fill="none" xmlns="http://www.w3.org/2000/svg">
<path d="M58.456 46.0399V93.7108H112.394V138.536H58.456V189.96H147.062V236H0V0H147.062V46.0399H58.456Z" fill="url(#paint0_linear_401_11)"/>
<path d="M329.438 14.7727C347.853 24.1639 363.123 38.5758 373.418 56.2811C383.745 74.1352 389 94.8894 389 118C389 141.111 383.745 161.593 373.418 179.538C363.14 197.365 347.79 211.854 329.253 221.227C310.26 231.076 288.223 236 263.144 236H173.155V190.051H260.932C270.746 190.393 280.529 188.789 289.699 185.334C298.869 181.879 307.236 176.644 314.302 169.94C321.369 163.237 326.989 155.203 330.827 146.318C334.665 137.433 336.644 127.879 336.644 118.227C336.644 108.574 334.665 99.0198 330.827 90.1349C326.989 81.25 321.369 73.2162 314.302 66.5129C307.236 59.8096 298.869 54.5741 289.699 51.119C280.529 47.6638 270.746 46.0597 260.932 46.4025H173.155V0H263.144C288.408 0 310.536 4.98464 329.438 14.7727Z" fill="url(#paint1_linear_401_11)"/>
<path d="M149.134 97.3123C152.922 94.8465 157.364 93.5309 161.907 93.5295C167.361 93.4892 172.654 95.3518 176.843 98.7861C177.013 98.8933 177.143 99.0525 177.212 99.2392C177.359 99.4519 177.424 99.7088 177.397 99.9643C177.46 100.088 177.436 100.254 177.415 100.405C177.406 100.475 177.397 100.541 177.397 100.599C177.331 100.838 177.204 101.056 177.028 101.233L176.474 101.686L175.829 101.867H175.091L174.538 101.505C172.187 99.5833 169.411 98.228 166.433 97.5469C163.454 96.8658 160.355 96.8778 157.382 97.582C154.409 98.2861 151.645 99.6629 149.309 101.603C146.973 103.543 145.13 105.992 143.927 108.755C143.828 109 143.67 109.218 143.466 109.39C143.392 109.536 143.197 109.623 143.028 109.699C142.987 109.717 142.949 109.735 142.913 109.752L142.268 109.934L141.53 109.752L140.977 109.39C140.801 109.213 140.674 108.994 140.608 108.755C140.505 108.558 140.443 108.342 140.424 108.121C140.442 107.871 140.504 107.625 140.608 107.396C142.382 103.285 145.347 99.778 149.134 97.3123Z" fill="url(#paint2_linear_401_11)"/>
<path d="M156.559 101.414C158.283 100.842 160.087 100.537 161.907 100.508C164.029 100.508 166.13 100.922 168.089 101.726C170.048 102.529 171.824 103.707 173.317 105.191C174.809 106.674 175.987 108.434 176.782 110.368C177.577 112.303 177.974 114.373 177.95 116.459C177.95 122.35 176.29 133.769 176.198 133.95C176.165 134.015 176.144 134.092 176.121 134.172C176.082 134.315 176.04 134.469 175.921 134.585L175.46 135.129C175.379 135.218 175.28 135.288 175.168 135.335C175.057 135.382 174.936 135.404 174.815 135.401H174.169L173.432 135.129L172.971 134.675C172.805 134.503 172.707 134.278 172.694 134.041C172.602 133.808 172.602 133.549 172.694 133.316C172.694 133.316 174.446 121.534 174.446 116.368C174.446 114.754 174.121 113.155 173.49 111.665C172.859 110.175 171.933 108.822 170.768 107.685C169.602 106.547 168.219 105.648 166.698 105.038C165.177 104.429 163.549 104.121 161.907 104.133C160.492 104.147 159.09 104.392 157.758 104.858H157.112L156.467 104.677C156.348 104.642 156.238 104.584 156.143 104.506C156.048 104.428 155.97 104.332 155.913 104.224L155.545 103.68C155.422 103.459 155.389 103.199 155.452 102.955C155.438 102.74 155.469 102.523 155.545 102.321L156.006 101.777L156.559 101.414Z" fill="url(#paint3_linear_401_11)"/>
<path d="M179.794 104.677C180.036 104.506 180.325 104.411 180.624 104.405V104.314C180.952 104.308 181.275 104.403 181.546 104.586C181.873 104.732 182.135 104.99 182.283 105.311C184.131 108.65 185.113 112.386 185.141 116.187C185.135 118.4 184.793 120.599 184.127 122.712L183.851 123.347L183.297 123.8L182.56 124.072H181.914L181.269 123.709C181.069 123.571 180.91 123.384 180.808 123.165C180.706 122.968 180.643 122.752 180.624 122.531C180.609 122.286 180.64 122.04 180.716 121.806C181.274 120.015 181.554 118.151 181.546 116.278C181.53 113.05 180.707 109.875 179.148 107.033C178.974 106.795 178.878 106.511 178.872 106.218C178.865 105.895 178.962 105.578 179.148 105.311C179.314 105.056 179.534 104.84 179.794 104.677Z" fill="url(#paint4_linear_401_11)"/>
<path d="M149.92 106.127L150.658 105.946C150.816 105.908 150.98 105.904 151.14 105.935C151.299 105.967 151.449 106.032 151.58 106.127C151.892 106.294 152.148 106.546 152.318 106.852C152.474 107.16 152.538 107.506 152.502 107.849C152.476 108.181 152.347 108.497 152.133 108.755C150.432 110.875 149.492 113.488 149.459 116.187C149.507 121.059 149.012 125.922 147.984 130.688L147.708 131.322L147.154 131.775L146.509 132.047H145.771L145.126 131.775L144.665 131.232C144.562 131.034 144.5 130.818 144.48 130.597V129.872C145.524 125.415 146.02 120.851 145.956 116.278C145.942 112.773 147.109 109.364 149.275 106.58C149.45 106.38 149.671 106.225 149.92 106.127Z" fill="url(#paint5_linear_401_11)"/>
<path d="M155.648 110.125C157.308 108.494 159.559 107.577 161.907 107.577C163.077 107.565 164.238 107.781 165.322 108.213C166.407 108.645 167.393 109.284 168.225 110.093C169.057 110.902 169.717 111.865 170.168 112.927C170.618 113.989 170.85 115.127 170.85 116.278C170.85 118.453 170.758 120.718 170.574 122.984C170.588 123.2 170.557 123.416 170.481 123.619L170.02 124.162L169.375 124.525H168.73L168.084 124.344C167.966 124.308 167.856 124.25 167.761 124.172C167.666 124.095 167.587 123.999 167.531 123.891L167.162 123.347C167.086 123.113 167.055 122.867 167.07 122.622C167.162 120.537 167.254 118.271 167.254 116.187C167.267 115.493 167.137 114.804 166.873 114.161C166.608 113.518 166.215 112.933 165.716 112.443C165.217 111.952 164.622 111.565 163.968 111.306C163.313 111.046 162.612 110.918 161.907 110.93C160.488 110.93 159.128 111.484 158.125 112.47C157.122 113.456 156.559 114.793 156.559 116.187C156.559 128.875 154.715 135.854 154.715 135.854C154.702 136.091 154.604 136.316 154.438 136.488C154.334 136.681 154.174 136.839 153.977 136.941L153.24 137.213H152.594L151.949 136.941L151.488 136.397C151.37 136.281 151.327 136.128 151.288 135.985C151.265 135.905 151.244 135.828 151.211 135.763C151.189 135.518 151.22 135.27 151.303 135.038C151.303 135.038 153.055 128.603 153.055 116.278C153.055 113.97 153.988 111.757 155.648 110.125Z" fill="url(#paint6_linear_401_11)"/>
<path d="M139.859 113.255C140.065 113.162 140.289 113.111 140.516 113.106L141.253 113.196C141.503 113.294 141.724 113.449 141.899 113.649C142.075 113.826 142.202 114.045 142.268 114.284C142.391 114.505 142.424 114.764 142.36 115.009V116.278C142.356 117.864 142.542 119.446 142.913 120.99C142.989 121.224 143.02 121.47 143.005 121.715C142.972 121.78 142.951 121.857 142.929 121.937C142.889 122.08 142.847 122.234 142.729 122.35L142.268 122.894L141.622 123.165H140.977L140.331 122.984L139.778 122.44C139.747 122.38 139.706 122.32 139.665 122.259C139.583 122.138 139.502 122.018 139.502 121.897C139.024 120.06 138.776 118.173 138.764 116.278C138.751 115.762 138.782 115.247 138.856 114.737C138.857 114.329 139.023 113.938 139.317 113.649C139.468 113.483 139.653 113.349 139.859 113.255Z" fill="url(#paint7_linear_401_11)"/>
<path d="M160.708 115.009C161.035 114.714 161.463 114.552 161.907 114.556L162.644 114.737L163.197 115.099C163.373 115.276 163.5 115.495 163.566 115.734C163.669 115.932 163.731 116.147 163.751 116.368C163.768 120.425 163.552 124.48 163.105 128.513C163.099 128.765 163.036 129.012 162.921 129.238L162.46 129.781C162.272 129.925 162.05 130.019 161.814 130.053H161.169L160.431 129.872L159.97 129.419C159.813 129.228 159.689 129.014 159.602 128.785C159.509 128.551 159.509 128.293 159.602 128.059C159.878 124.978 160.155 121.081 160.155 116.278C160.162 115.8 160.361 115.343 160.708 115.009Z" fill="url(#paint8_linear_401_11)"/>
<path d="M166.886 129.419C167.221 129.138 167.644 128.978 168.084 128.966L168.822 129.147C169.071 129.245 169.292 129.4 169.467 129.6C169.643 129.777 169.77 129.996 169.836 130.235C169.883 130.474 169.883 130.72 169.836 130.96C169.467 134.494 169.006 136.941 169.006 136.941C168.988 137.192 168.925 137.437 168.822 137.666C168.756 137.73 168.703 137.795 168.652 137.855C168.56 137.965 168.48 138.061 168.361 138.119C168.185 138.283 167.957 138.379 167.715 138.391C167.478 138.482 167.215 138.482 166.978 138.391L166.332 138.21C166.136 138.108 165.975 137.95 165.871 137.757C165.705 137.585 165.607 137.36 165.595 137.122C165.519 136.888 165.488 136.643 165.502 136.397C165.502 136.397 165.871 134.041 166.332 130.506C166.384 130.092 166.579 129.708 166.886 129.419Z" fill="url(#paint9_linear_401_11)"/>
<path d="M159.048 134.041C159.384 133.76 159.807 133.601 160.247 133.588V133.497L160.985 133.679C161.26 133.776 161.49 133.97 161.63 134.222C161.776 134.407 161.871 134.625 161.907 134.857C161.998 135.121 161.998 135.408 161.907 135.672C161.63 137.032 161.446 137.757 161.446 137.757C161.355 137.958 161.231 138.142 161.077 138.301L160.524 138.754L159.878 138.935H159.141L158.587 138.663L158.126 138.119C158.024 137.922 157.961 137.706 157.942 137.485C157.92 137.24 157.951 136.992 158.034 136.76C158.034 136.76 158.219 136.216 158.495 135.038C158.544 134.649 158.742 134.292 159.048 134.041Z" fill="url(#paint10_linear_401_11)"/>
<defs>
<linearGradient id="paint0_linear_401_11" x1="-41.62" y1="36.7772" x2="354.569" y2="197.059" gradientUnits="userSpaceOnUse">
<stop stop-color="#043E95"/>
<stop offset="1" stop-color="#0452C5"/>
</linearGradient>
<linearGradient id="paint1_linear_401_11" x1="-41.62" y1="36.7772" x2="354.569" y2="197.059" gradientUnits="userSpaceOnUse">
<stop stop-color="#043E95"/>
<stop offset="1" stop-color="#0452C5"/>
</linearGradient>
<linearGradient id="paint2_linear_401_11" x1="-41.62" y1="36.7772" x2="354.569" y2="197.059" gradientUnits="userSpaceOnUse">
<stop stop-color="#043E95"/>
<stop offset="1" stop-color="#0452C5"/>
</linearGradient>
<linearGradient id="paint3_linear_401_11" x1="-41.62" y1="36.7772" x2="354.569" y2="197.059" gradientUnits="userSpaceOnUse">
<stop stop-color="#043E95"/>
<stop offset="1" stop-color="#0452C5"/>
</linearGradient>
<linearGradient id="paint4_linear_401_11" x1="-41.62" y1="36.7772" x2="354.569" y2="197.059" gradientUnits="userSpaceOnUse">
<stop stop-color="#043E95"/>
<stop offset="1" stop-color="#0452C5"/>
</linearGradient>
<linearGradient id="paint5_linear_401_11" x1="-41.62" y1="36.7772" x2="354.569" y2="197.059" gradientUnits="userSpaceOnUse">
<stop stop-color="#043E95"/>
<stop offset="1" stop-color="#0452C5"/>
</linearGradient>
<linearGradient id="paint6_linear_401_11" x1="-41.62" y1="36.7772" x2="354.569" y2="197.059" gradientUnits="userSpaceOnUse">
<stop stop-color="#043E95"/>
<stop offset="1" stop-color="#0452C5"/>
</linearGradient>
<linearGradient id="paint7_linear_401_11" x1="-41.62" y1="36.7772" x2="354.569" y2="197.059" gradientUnits="userSpaceOnUse">
<stop stop-color="#043E95"/>
<stop offset="1" stop-color="#0452C5"/>
</linearGradient>
<linearGradient id="paint8_linear_401_11" x1="-41.62" y1="36.7772" x2="354.569" y2="197.059" gradientUnits="userSpaceOnUse">
<stop stop-color="#043E95"/>
<stop offset="1" stop-color="#0452C5"/>
</linearGradient>
<linearGradient id="paint9_linear_401_11" x1="-41.62" y1="36.7772" x2="354.569" y2="197.059" gradientUnits="userSpaceOnUse">
<stop stop-color="#043E95"/>
<stop offset="1" stop-color="#0452C5"/>
</linearGradient>
<linearGradient id="paint10_linear_401_11" x1="-41.62" y1="36.7772" x2="354.569" y2="197.059" gradientUnits="userSpaceOnUse">
<stop stop-color="#043E95"/>
<stop offset="1" stop-color="#0452C5"/>
</linearGradient>
</defs>
</svg>
