<svg width="29" height="29" viewBox="0 0 29 29" fill="none" xmlns="http://www.w3.org/2000/svg">
<circle cx="14.5" cy="14.5" r="14.5" fill="#044FBE"/>
<path d="M8 13.25C7.58579 13.25 7.25 13.5858 7.25 14C7.25 14.4142 7.58579 14.75 8 14.75L8 13.25ZM20.5303 14.5303C20.8232 14.2374 20.8232 13.7626 20.5303 13.4697L15.7574 8.6967C15.4645 8.40381 14.9896 8.40381 14.6967 8.6967C14.4038 8.98959 14.4038 9.46447 14.6967 9.75736L18.9393 14L14.6967 18.2426C14.4038 18.5355 14.4038 19.0104 14.6967 19.3033C14.9896 19.5962 15.4645 19.5962 15.7574 19.3033L20.5303 14.5303ZM8 14.75L20 14.75L20 13.25L8 13.25L8 14.75Z" fill="white"/>
</svg>
