<svg width="13" height="13" viewBox="0 0 13 13" fill="none" xmlns="http://www.w3.org/2000/svg">
<path d="M6.5 0C2.912 0 0 2.912 0 6.5C0 10.088 2.912 13 6.5 13C10.088 13 13 10.088 13 6.5C13 2.912 10.088 0 6.5 0ZM3.25 7.475C2.7105 7.475 2.275 7.0395 2.275 6.5C2.275 5.9605 2.7105 5.525 3.25 5.525C3.7895 5.525 4.225 5.9605 4.225 6.5C4.225 7.0395 3.7895 7.475 3.25 7.475ZM6.5 7.475C5.9605 7.475 5.525 7.0395 5.525 6.5C5.525 5.9605 5.9605 5.525 6.5 5.525C7.0395 5.525 7.475 5.9605 7.475 6.5C7.475 7.0395 7.0395 7.475 6.5 7.475ZM9.75 7.475C9.2105 7.475 8.775 7.0395 8.775 6.5C8.775 5.9605 9.2105 5.525 9.75 5.525C10.2895 5.525 10.725 5.9605 10.725 6.5C10.725 7.0395 10.2895 7.475 9.75 7.475Z" fill="#0450C0"/>
</svg>
