<svg width="70" height="70" viewBox="0 0 70 70" fill="none" xmlns="http://www.w3.org/2000/svg">
<path d="M35 0C15.68 0 0 15.68 0 35C0 54.32 15.68 70 35 70C54.32 70 70 54.32 70 35C70 15.68 54.32 0 35 0ZM17.5 40.25C14.595 40.25 12.25 37.905 12.25 35C12.25 32.095 14.595 29.75 17.5 29.75C20.405 29.75 22.75 32.095 22.75 35C22.75 37.905 20.405 40.25 17.5 40.25ZM35 40.25C32.095 40.25 29.75 37.905 29.75 35C29.75 32.095 32.095 29.75 35 29.75C37.905 29.75 40.25 32.095 40.25 35C40.25 37.905 37.905 40.25 35 40.25ZM52.5 40.25C49.595 40.25 47.25 37.905 47.25 35C47.25 32.095 49.595 29.75 52.5 29.75C55.405 29.75 57.75 32.095 57.75 35C57.75 37.905 55.405 40.25 52.5 40.25Z" fill="#EDEEF2"/>
</svg>
