<svg width="23" height="23" viewBox="0 0 23 23" fill="none" xmlns="http://www.w3.org/2000/svg">
<path d="M21.2704 4.17105C21.776 4.34875 22.214 4.67909 22.5239 5.11643C22.8337 5.55377 23.0001 6.07653 23 6.6125V18.1125C23 19.4087 22.4851 20.6519 21.5685 21.5685C20.6519 22.4851 19.4087 23 18.1125 23H6.6125C6.07653 23.0001 5.55377 22.8337 5.11643 22.5239C4.67909 22.214 4.34875 21.776 4.17105 21.2704L6.5826 21.275H18.1125C18.9512 21.275 19.7556 20.9418 20.3487 20.3487C20.9418 19.7556 21.275 18.9512 21.275 18.1125V6.6125L21.2704 6.55385V4.17105ZM17.5329 0C18.2191 0 18.8773 0.272611 19.3625 0.757861C19.8478 1.24311 20.1204 1.90125 20.1204 2.5875V17.534C20.1204 18.2203 19.8478 18.8784 19.3625 19.3637C18.8773 19.8489 18.2191 20.1215 17.5329 20.1215H2.5875C1.90125 20.1215 1.24311 19.8489 0.757861 19.3637C0.272611 18.8784 0 18.2203 0 17.534V2.5875C0 1.90125 0.272611 1.24311 0.757861 0.757861C1.24311 0.272611 1.90125 0 2.5875 0H17.534H17.5329ZM17.5329 1.725H2.5875C2.35875 1.725 2.13937 1.81587 1.97762 1.97762C1.81587 2.13937 1.725 2.35875 1.725 2.5875V17.534C1.725 18.0101 2.1114 18.3965 2.5875 18.3965H17.534C17.7628 18.3965 17.9822 18.3057 18.1439 18.1439C18.3057 17.9822 18.3965 17.7628 18.3965 17.534V2.5875C18.3965 2.35875 18.3057 2.13937 18.1439 1.97762C17.9822 1.81587 17.7628 1.725 17.534 1.725H17.5329ZM10.0625 5.4625C10.2912 5.4625 10.5106 5.55337 10.6724 5.71512C10.8341 5.87687 10.925 6.09625 10.925 6.325V9.2H13.8C14.0287 9.2 14.2481 9.29087 14.4099 9.45262C14.5716 9.61437 14.6625 9.83375 14.6625 10.0625C14.6625 10.2912 14.5716 10.5106 14.4099 10.6724C14.2481 10.8341 14.0287 10.925 13.8 10.925H10.925V13.8C10.925 14.0287 10.8341 14.2481 10.6724 14.4099C10.5106 14.5716 10.2912 14.6625 10.0625 14.6625C9.83375 14.6625 9.61437 14.5716 9.45262 14.4099C9.29087 14.2481 9.2 14.0287 9.2 13.8V10.925H6.325C6.09625 10.925 5.87687 10.8341 5.71512 10.6724C5.55337 10.5106 5.4625 10.2912 5.4625 10.0625C5.4625 9.83375 5.55337 9.61437 5.71512 9.45262C5.87687 9.29087 6.09625 9.2 6.325 9.2H9.2V6.325C9.2 6.09625 9.29087 5.87687 9.45262 5.71512C9.61437 5.55337 9.83375 5.4625 10.0625 5.4625Z" fill="white"/>
</svg>
