<svg width="12" height="13" viewBox="0 0 12 13" fill="none" xmlns="http://www.w3.org/2000/svg">
<path fill-rule="evenodd" clip-rule="evenodd" d="M0.373689 2.51306C-0.0150479 5.9865 1.11354 8.57431 2.47454 10.3041C3.06942 11.067 3.77871 11.7389 4.57873 12.2972C4.90143 12.519 5.20071 12.6888 5.45485 12.805C5.68893 12.9123 5.94056 13 6.14789 13C6.35522 13 6.60602 12.9123 6.84093 12.805C7.14731 12.6603 7.44041 12.4904 7.71705 12.2972C8.24216 11.9332 8.7276 11.518 9.16582 11.0581L0.373689 2.51306ZM10.5853 9.18775L2.07493 0.9165C2.61429 0.75398 3.15636 0.600126 3.70094 0.455C4.60716 0.215313 5.57106 0 6.14789 0C6.72473 0 7.68863 0.215313 8.59568 0.455C9.52363 0.69875 10.4591 0.987187 11.0092 1.16187C11.2392 1.23569 11.4431 1.37107 11.5975 1.55244C11.7518 1.73382 11.8505 1.95385 11.882 2.18725C12.2857 5.13337 11.6044 7.46119 10.5853 9.18775V9.18775ZM10.8679 11.6626L0 1.10012L0.591883 0.524875L11.4598 11.0874L10.8687 11.6618L10.8679 11.6626Z" fill="#0450C0"/>
</svg>
