<svg width="52" height="52" viewBox="0 0 52 52" fill="none" xmlns="http://www.w3.org/2000/svg">
<circle cx="26" cy="26" r="26" fill="white"/>
<path d="M23.6641 15C23.0114 15 22.3854 15.2553 21.9239 15.7097C21.4624 16.1641 21.2031 16.7804 21.2031 17.4231V18.2308H15.4609C14.8083 18.2308 14.1823 18.4861 13.7208 18.9405C13.2593 19.3949 13 20.0112 13 20.6538V22.8895L25.4917 26.1688C25.9067 26.2776 26.3433 26.2776 26.7583 26.1688L39.25 22.8895V20.6538C39.25 20.0112 38.9907 19.3949 38.5292 18.9405C38.0677 18.4861 37.4417 18.2308 36.7891 18.2308H31.0469V17.4231C31.0469 16.7804 30.7876 16.1641 30.3261 15.7097C29.8646 15.2553 29.2386 15 28.5859 15H23.6641ZM23.6641 16.6154H28.5859C28.8035 16.6154 29.0121 16.7005 29.166 16.852C29.3198 17.0034 29.4062 17.2089 29.4062 17.4231V18.2308H22.8438V17.4231C22.8438 17.2089 22.9302 17.0034 23.084 16.852C23.2379 16.7005 23.4465 16.6154 23.6641 16.6154Z" fill="#0444A3"/>
<path d="M13 33.5769C13 34.2196 13.2593 34.8359 13.7208 35.2903C14.1823 35.7447 14.8083 36 15.4609 36H36.7891C37.4417 36 38.0677 35.7447 38.5292 35.2903C38.9907 34.8359 39.25 34.2196 39.25 33.5769V24.45L26.3366 27.8375C26.198 27.8739 26.052 27.8739 25.9134 27.8375L13 24.45V33.5769Z" fill="#0444A3"/>
<path d="M24.4629 25.6869C24.4629 25.4376 24.6682 25.2355 24.9214 25.2355H27.3286C27.5818 25.2355 27.7871 25.4376 27.7871 25.6869V27.9442C27.7871 28.1936 27.5818 28.3957 27.3286 28.3957H24.9214C24.6682 28.3957 24.4629 28.1936 24.4629 27.9442V25.6869Z" fill="#0444A3"/>
<path d="M13 32.0074H39.25V33.3618H13V32.0074Z" fill="#0444A3"/>
<rect x="13" y="32.5" width="26.25" height="0.875" fill="white"/>
<g filter="url(#filter0_d_23_249)">
<rect x="23.5" y="24.1875" width="5.25" height="5.25" rx="1" fill="white"/>
</g>
<defs>
<filter id="filter0_d_23_249" x="15.5" y="16.1875" width="25.25" height="25.25" filterUnits="userSpaceOnUse" color-interpolation-filters="sRGB">
<feFlood flood-opacity="0" result="BackgroundImageFix"/>
<feColorMatrix in="SourceAlpha" type="matrix" values="0 0 0 0 0 0 0 0 0 0 0 0 0 0 0 0 0 0 127 0" result="hardAlpha"/>
<feOffset dx="2" dy="2"/>
<feGaussianBlur stdDeviation="5"/>
<feComposite in2="hardAlpha" operator="out"/>
<feColorMatrix type="matrix" values="0 0 0 0 0 0 0 0 0 0 0 0 0 0 0 0 0 0 0.13 0"/>
<feBlend mode="normal" in2="BackgroundImageFix" result="effect1_dropShadow_23_249"/>
<feBlend mode="normal" in="SourceGraphic" in2="effect1_dropShadow_23_249" result="shape"/>
</filter>
</defs>
</svg>
